<svg width="24" height="24" viewBox="0 0 24 24" fill="none" xmlns="http://www.w3.org/2000/svg">
<path d="M11.4412 2.33948L9.91406 5.39733C9.91406 5.39733 9.79973 5.65046 9.93415 5.90671L12.9868 12.0263L15.1742 7.58387L12.5466 2.33169C12.4421 2.13436 12.2346 2 11.9959 2C11.7541 2 11.5445 2.13794 11.4412 2.33948Z" fill="url(#paint0_linear_4_60)"/>
<path d="M15.1743 7.584L12.9867 12.0261L15.1673 16.3976L17.369 11.9709L15.1743 7.584Z" fill="#658F2E"/>
<path d="M15.1674 16.3978L16.8863 19.8436C18.1033 22.269 19.7188 21.9903 19.7188 21.9903H21.377C21.721 21.9903 22 21.7113 22 21.3668C22 21.2912 21.9865 21.2187 21.9618 21.1517L17.369 11.9709L15.1674 16.3978Z" fill="url(#paint1_linear_4_60)"/>
<path d="M8.81907 7.59184L6.61498 11.9846L8.82452 16.4139L11.0007 11.9654L8.81907 7.59184Z" fill="#367EAA"/>
<path d="M5.54373 14.1474L2.02804 21.1863C2.00981 21.2449 2 21.3072 2 21.3718C2 21.7014 2.25575 21.9713 2.57956 21.9937H4.2991C5.70089 21.9937 6.56439 20.8214 6.90176 20.1622L7.70623 18.5547C7.70623 18.5547 7.89843 18.2391 7.71137 17.8513L5.86537 14.1505C5.86537 14.1505 5.78733 14.0482 5.69139 14.0482C5.64419 14.0482 5.59248 14.0732 5.54373 14.1474Z" fill="url(#paint2_linear_4_60)"/>
<path d="M4.41591 2.00171H2.64264C2.29843 2.00171 2.01947 2.28087 2.01947 2.62519C2.01947 2.7198 2.04065 2.80958 2.07834 2.89001L6.61501 11.9844L8.81907 7.59184L6.96437 3.87355C6.00991 2.03912 4.54223 2.00156 4.42354 2.00156C4.4184 2.00156 4.41591 2.00171 4.41591 2.00171Z" fill="url(#paint3_linear_4_60)"/>
<path d="M8.82452 16.4139L11.4559 21.6888C11.5649 21.8695 11.763 21.9903 11.9895 21.9903C12.2178 21.9903 12.4177 21.8673 12.5261 21.6838L14.0766 18.5859C14.2166 18.3573 14.0462 18.0705 14.0462 18.0705L11.0006 11.9654L8.82452 16.4139Z" fill="url(#paint4_linear_4_60)"/>
<path d="M17.032 3.87698L16.5961 4.79863L16.24 5.51018C16.143 5.68241 16.1766 5.85371 16.2572 6.01488L18.1701 9.84974C18.1701 9.84974 18.3209 10.0878 18.4748 9.79784L21.965 2.82408C21.9855 2.7622 21.9967 2.6958 21.9967 2.62675C21.9967 2.28243 21.7178 2.00327 21.3737 2.00327H19.6215C19.6215 2.00327 19.6131 2.00296 19.5973 2.00296C19.3919 2.00296 17.9181 2.06733 17.032 3.87698Z" fill="url(#paint5_linear_4_60)"/>
<defs>
<linearGradient id="paint0_linear_4_60" x1="17.3532" y1="7.29575" x2="13.724" y2="20.0764" gradientUnits="userSpaceOnUse">
<stop stop-color="#8EBA2A"/>
<stop offset="1" stop-color="#82AD29"/>
</linearGradient>
<linearGradient id="paint1_linear_4_60" x1="17.2594" y1="1.7246" x2="10.3167" y2="21.2129" gradientUnits="userSpaceOnUse">
<stop stop-color="#A9C940"/>
<stop offset="1" stop-color="#9FC539"/>
</linearGradient>
<linearGradient id="paint2_linear_4_60" x1="18.5991" y1="17.6477" x2="12.8053" y2="0.908291" gradientUnits="userSpaceOnUse">
<stop stop-color="#7FAA2A"/>
<stop offset="0.00510204" stop-color="#7FAA2A"/>
<stop offset="0.996453" stop-color="#7BA72B"/>
<stop offset="1" stop-color="#7BA72B"/>
</linearGradient>
<linearGradient id="paint3_linear_4_60" x1="6.17654" y1="21.9181" x2="12.6695" y2="5.20353" gradientUnits="userSpaceOnUse">
<stop stop-color="#5499C4"/>
<stop offset="1" stop-color="#5C9FCC"/>
</linearGradient>
<linearGradient id="paint4_linear_4_60" x1="6.38584" y1="16.5765" x2="10.809" y2="2.15585" gradientUnits="userSpaceOnUse">
<stop stop-color="#67A8D7"/>
<stop offset="1" stop-color="#6FADDE"/>
</linearGradient>
<linearGradient id="paint5_linear_4_60" x1="17.2849" y1="7.53519" x2="20.7151" y2="2.23793" gradientUnits="userSpaceOnUse">
<stop stop-color="#70AEDF"/>
<stop offset="1" stop-color="#71AFE0"/>
</linearGradient>
</defs>
</svg>
