<svg width="24" height="24" viewBox="0 0 24 24" fill="none" xmlns="http://www.w3.org/2000/svg">
<path fill-rule="evenodd" clip-rule="evenodd" d="M12 22C10.8954 22 10 21.068 10 19.9184L10 19.9017C10 18.7521 10.8954 17.8201 12 17.8201C13.1046 17.8201 14 18.7521 14 19.9017L14 19.9184C14 21.068 13.1046 22 12 22Z" fill="#C7CED9"/>
<path fill-rule="evenodd" clip-rule="evenodd" d="M12 14.0899C10.8954 14.0899 10 13.158 10 12.0083L10 11.9917C10 10.842 10.8954 9.91008 12 9.91008C13.1046 9.91008 14 10.842 14 11.9917L14 12.0083C14 13.158 13.1046 14.0899 12 14.0899Z" fill="#C7CED9"/>
<path fill-rule="evenodd" clip-rule="evenodd" d="M12 6.17985C10.8954 6.17985 10 5.24789 10 4.09825L10 4.0816C10 2.93196 10.8954 2 12 2C13.1046 2 14 2.93196 14 4.0816L14 4.09825C14 5.24789 13.1046 6.17985 12 6.17985Z" fill="#C7CED9"/>
</svg>
