<svg width="24" height="24" viewBox="0 0 24 24" fill="none" xmlns="http://www.w3.org/2000/svg">
<path fill-rule="evenodd" clip-rule="evenodd" d="M4.25 8C4.11193 8 4 8.11193 4 8.25C4 8.38807 4.11193 8.5 4.25 8.5C4.38807 8.5 4.5 8.38807 4.5 8.25C4.5 8.11193 4.38807 8 4.25 8ZM2 8.25C2 7.00736 3.00736 6 4.25 6C5.49264 6 6.5 7.00736 6.5 8.25C6.5 9.49264 5.49264 10.5 4.25 10.5C3.00736 10.5 2 9.49264 2 8.25ZM13 8C12.8619 8 12.75 8.11193 12.75 8.25C12.75 8.38807 12.8619 8.5 13 8.5C13.1381 8.5 13.25 8.38807 13.25 8.25C13.25 8.11193 13.1381 8 13 8ZM10.75 8.25C10.75 7.00736 11.7574 6 13 6C14.2426 6 15.25 7.00736 15.25 8.25C15.25 9.49264 14.2426 10.5 13 10.5C11.7574 10.5 10.75 9.49264 10.75 8.25ZM21.75 8C21.6119 8 21.5 8.11193 21.5 8.25C21.5 8.38807 21.6119 8.5 21.75 8.5C21.8881 8.5 22 8.38807 22 8.25C22 8.11193 21.8881 8 21.75 8ZM19.5 8.25C19.5 7.00736 20.5074 6 21.75 6C22.9926 6 24 7.00736 24 8.25C24 9.49264 22.9926 10.5 21.75 10.5C20.5074 10.5 19.5 9.49264 19.5 8.25ZM4.25 15.5C4.11193 15.5 4 15.6119 4 15.75C4 15.8881 4.11193 16 4.25 16C4.38807 16 4.5 15.8881 4.5 15.75C4.5 15.6119 4.38807 15.5 4.25 15.5ZM2 15.75C2 14.5074 3.00736 13.5 4.25 13.5C5.49264 13.5 6.5 14.5074 6.5 15.75C6.5 16.9926 5.49264 18 4.25 18C3.00736 18 2 16.9926 2 15.75ZM13 15.5C12.8619 15.5 12.75 15.6119 12.75 15.75C12.75 15.8881 12.8619 16 13 16C13.1381 16 13.25 15.8881 13.25 15.75C13.25 15.6119 13.1381 15.5 13 15.5ZM10.75 15.75C10.75 14.5074 11.7574 13.5 13 13.5C14.2426 13.5 15.25 14.5074 15.25 15.75C15.25 16.9926 14.2426 18 13 18C11.7574 18 10.75 16.9926 10.75 15.75ZM21.75 15.5C21.6119 15.5 21.5 15.6119 21.5 15.75C21.5 15.8881 21.6119 16 21.75 16C21.8881 16 22 15.8881 22 15.75C22 15.6119 21.8881 15.5 21.75 15.5ZM19.5 15.75C19.5 14.5074 20.5074 13.5 21.75 13.5C22.9926 13.5 24 14.5074 24 15.75C24 16.9926 22.9926 18 21.75 18C20.5074 18 19.5 16.9926 19.5 15.75Z" fill="#C7CED9"/>
</svg>
