<svg width="24" height="24" viewBox="0 0 24 24" fill="none" xmlns="http://www.w3.org/2000/svg">
<path fill-rule="evenodd" clip-rule="evenodd" d="M9.8553 2.73586C11.1168 1.75471 12.8832 1.75471 14.1447 2.73586L13.5308 3.52521L14.1447 2.73586L20.6514 7.7966C21.5023 8.45844 22 9.47606 22 10.5541V18.508C22 20.4373 20.436 22.0013 18.5067 22.0013H5.49333C3.56402 22.0013 2 20.4373 2 18.508V10.5541C2 9.47606 2.4977 8.45844 3.34863 7.7966L9.8553 2.73586ZM12.9168 4.31457C12.3776 3.89514 11.6224 3.89514 11.0832 4.31457L4.57651 9.37531C4.21276 9.65823 4 10.0932 4 10.5541V18.508C4 19.3327 4.66859 20.0013 5.49333 20.0013H18.5067C19.3314 20.0013 20 19.3327 20 18.508V10.5541C20 10.0932 19.7872 9.65823 19.4235 9.37531L12.9168 4.31457ZM15.3834 14.0777C15.8935 14.2895 16.1353 14.8746 15.9236 15.3847C15.6018 16.1597 15.0571 16.8217 14.3587 17.2873C13.6603 17.7529 12.8395 18.0013 12 18.0013C11.1605 18.0013 10.3397 17.7529 9.64127 17.2873C8.94285 16.8217 8.39816 16.1597 8.07643 15.3847C7.86467 14.8746 8.1065 14.2895 8.61658 14.0777C9.12665 13.866 9.71181 14.1078 9.92357 14.6179C10.0934 15.0269 10.3811 15.3768 10.7507 15.6232C11.1203 15.8696 11.555 16.0013 12 16.0013C12.445 16.0013 12.8797 15.8696 13.2493 15.6232C13.6189 15.3768 13.9066 15.0269 14.0764 14.6179C14.2882 14.1078 14.8733 13.866 15.3834 14.0777Z" fill="#C7CED9"/>
</svg>
