<svg width="24" height="24" viewBox="0 0 24 24" fill="none" xmlns="http://www.w3.org/2000/svg">
<path fill-rule="evenodd" clip-rule="evenodd" d="M12.1973 3.95034C11.4204 4.21845 10.8074 4.77979 10.3199 5.78813L10.3177 5.79267C10.0674 6.30152 9.85595 6.94313 9.6738 7.71713C9.67377 7.71728 9.67384 7.71698 9.6738 7.71713L8.74554 11.6859C8.29848 13.5928 8.41772 14.8285 8.94485 15.6772C9.47252 16.5268 10.5289 17.1826 12.4325 17.6346L14.0268 18.0142C14.545 18.1392 15.0173 18.2172 15.4453 18.2514L15.4573 18.2524C16.8045 18.3819 17.71 18.1234 18.3698 17.5588C19.0549 16.9725 19.5963 15.955 19.979 14.3103L20.9076 10.3492C21.3549 8.44144 21.2375 7.20396 20.7104 6.35443C20.1834 5.50493 19.126 4.84887 17.2138 4.40157C17.2137 4.40155 17.2139 4.40159 17.2138 4.40157L15.6317 4.03211L15.6297 4.03163C14.1086 3.67185 13.009 3.67019 12.1973 3.95034ZM15.974 2.57167C14.3314 2.18327 12.9066 2.11872 11.7079 2.53241C10.4748 2.95796 9.59135 3.84997 8.97054 5.13294C8.65298 5.77925 8.41011 6.53874 8.21357 7.37402L7.28505 11.3439C6.80374 13.3969 6.83124 15.1172 7.67063 16.4687C8.50942 17.8192 10.0391 18.608 12.0856 19.0939L13.6748 19.4723C13.6746 19.4722 13.6751 19.4724 13.6748 19.4723C14.253 19.6118 14.8023 19.7044 15.3197 19.7461C16.9254 19.8995 18.282 19.6082 19.3451 18.6985C20.384 17.8094 21.0267 16.4257 21.4398 14.6508C21.4398 14.651 21.4399 14.6506 21.4398 14.6508L22.368 10.6916C22.8491 8.63955 22.8245 6.91663 21.985 5.56362C21.1456 4.21061 19.612 3.42202 17.5551 2.94093L15.9749 2.5719C15.9746 2.57183 15.9743 2.57175 15.974 2.57167Z" fill="#C7CED9"/>
<path fill-rule="evenodd" clip-rule="evenodd" d="M10.2415 5.00754C10.4135 5.23369 10.4431 5.53769 10.3177 5.79267C10.0674 6.30152 9.85595 6.94313 9.6738 7.71713C9.67377 7.71728 9.67384 7.71698 9.6738 7.71713L8.74554 11.6859C8.29848 13.5928 8.41772 14.8285 8.94485 15.6772C9.47252 16.5268 10.5289 17.1826 12.4325 17.6346L14.0268 18.0142C14.545 18.1392 15.0173 18.2172 15.4453 18.2514C15.7627 18.2768 16.0294 18.4998 16.1106 18.8078C16.1918 19.1157 16.0697 19.4413 15.806 19.6199C15.1405 20.0707 14.3307 20.4287 13.3926 20.7348C13.3924 20.7349 13.3929 20.7347 13.3926 20.7348L11.8925 21.2285C9.94242 21.8573 8.26902 21.9734 6.88727 21.2665C5.50579 20.5596 4.61977 19.1342 3.98623 17.1845L2.77313 13.4409C2.14459 11.4915 2.02592 9.81627 2.72973 8.43353C3.43388 7.05012 4.85703 6.16387 6.80709 5.53482L8.30951 5.04035C8.70924 4.91361 9.11151 4.79919 9.50516 4.72472C9.78436 4.6719 10.0694 4.78139 10.2415 5.00754ZM8.42143 6.58267L7.26958 6.96176C5.45987 7.54524 4.50128 8.25982 4.06653 9.11395C3.63122 9.96919 3.61672 11.169 4.20059 12.9801C4.20065 12.9803 4.20053 12.98 4.20059 12.9801L5.41281 16.721C6.00133 18.5321 6.7163 19.494 7.57051 19.9311C8.42412 20.3678 9.62051 20.3847 11.4301 19.8016C11.4308 19.8014 11.4315 19.8011 11.4322 19.8009L12.9247 19.3097L12.9265 19.3091C12.9354 19.3062 12.9442 19.3033 12.953 19.3004L12.0856 19.0939C10.0391 18.608 8.50942 17.8192 7.67063 16.4687C6.83124 15.1172 6.80374 13.3969 7.28505 11.3439C7.28508 11.3438 7.28502 11.344 7.28505 11.3439L8.21357 7.37402C8.27763 7.10176 8.34654 6.83752 8.42143 6.58267Z" fill="#C7CED9"/>
<path fill-rule="evenodd" clip-rule="evenodd" d="M12.3659 8.52666C12.4677 8.12516 12.8758 7.88222 13.2773 7.98405L17.8718 9.14926C18.2733 9.25109 18.5162 9.65911 18.4144 10.0606C18.3126 10.4621 17.9046 10.7051 17.5031 10.6032L12.9085 9.43802C12.507 9.33619 12.2641 8.92817 12.3659 8.52666Z" fill="#C7CED9"/>
<path fill-rule="evenodd" clip-rule="evenodd" d="M11.4378 12.1918C11.5402 11.7904 11.9486 11.5481 12.35 11.6505L15.0972 12.3515C15.4986 12.4539 15.7409 12.8623 15.6385 13.2637C15.5361 13.665 15.1277 13.9073 14.7263 13.8049L11.9791 13.1039C11.5777 13.0015 11.3354 12.5931 11.4378 12.1918Z" fill="#C7CED9"/>
</svg>
