<svg width="24" height="24" viewBox="0 0 24 24" fill="none" xmlns="http://www.w3.org/2000/svg">
<path fill-rule="evenodd" clip-rule="evenodd" d="M13.8671 6.03069C13.7744 6.00716 13.6626 6 13.0941 6H13V7.8C13 8.37655 13.0008 8.74883 13.0239 9.03216C13.0461 9.30383 13.0838 9.40455 13.109 9.45399C13.2049 9.64215 13.3578 9.79513 13.546 9.89101C13.5955 9.9162 13.6962 9.95388 13.9678 9.97607C14.2512 9.99922 14.6234 10 15.2 10H17C16.9995 9.54436 16.9935 9.44965 16.9753 9.36912C16.9533 9.27234 16.9171 9.17937 16.8678 9.09325C16.8251 9.01867 16.7623 8.94175 16.4204 8.56947L14.7144 6.71191C14.3299 6.29316 14.249 6.21571 14.1689 6.16329C14.0764 6.1027 13.9744 6.05789 13.8671 6.03069ZM17 12L15.1615 12C14.6343 12 14.1795 12 13.805 11.9694C13.4096 11.9371 13.0164 11.8658 12.638 11.673C12.0735 11.3854 11.6146 10.9265 11.327 10.362C11.1342 9.98359 11.0629 9.59037 11.0306 9.19503C11 8.82046 11 8.36569 11 7.83854L11 6H9.2C8.62345 6 8.25117 6.00078 7.96784 6.02393C7.69617 6.04612 7.59546 6.0838 7.54601 6.10899C7.35785 6.20487 7.20487 6.35785 7.109 6.54601C7.0838 6.59545 7.04612 6.69617 7.02393 6.96784C7.00078 7.25117 7 7.62345 7 8.2V15.8C7 16.3766 7.00078 16.7488 7.02393 17.0322C7.04612 17.3038 7.0838 17.4045 7.109 17.454C7.20487 17.6422 7.35785 17.7951 7.54601 17.891C7.59546 17.9162 7.69617 17.9539 7.96784 17.9761C8.25117 17.9992 8.62345 18 9.2 18H14.8C15.3766 18 15.7488 17.9992 16.0322 17.9761C16.3038 17.9539 16.4045 17.9162 16.454 17.891C16.6422 17.7951 16.7951 17.6422 16.891 17.454C16.9162 17.4045 16.9539 17.3038 16.9761 17.0322C16.9992 16.7488 17 16.3766 17 15.8V12ZM13.1824 3.99994C13.613 3.99952 13.9924 3.99915 14.3588 4.09206C14.6805 4.17366 14.9865 4.30809 15.2642 4.48987C15.5805 4.69686 15.8369 4.97661 16.1278 5.29397C16.1475 5.31551 16.1674 5.33722 16.1875 5.3591L17.8934 7.21666C17.9112 7.23605 17.9289 7.25526 17.9464 7.27432C18.2061 7.55658 18.4351 7.8055 18.6034 8.09948C18.7514 8.35782 18.86 8.63675 18.9258 8.92708C19.0007 9.25746 19.0004 9.59569 19 9.97923C19 10.0051 19 10.0312 19 10.0576V15.8385C19 16.3657 19 16.8204 18.9694 17.195C18.9371 17.5904 18.8658 17.9836 18.673 18.362C18.3854 18.9265 17.9265 19.3854 17.362 19.673C16.9836 19.8658 16.5904 19.9371 16.195 19.9694C15.8205 20 15.3657 20 14.8385 20H9.16148C8.63432 20 8.17955 20 7.80497 19.9694C7.40963 19.9371 7.01641 19.8658 6.63803 19.673C6.07354 19.3854 5.6146 18.9265 5.32698 18.362C5.13419 17.9836 5.06287 17.5904 5.03057 17.195C4.99997 16.8205 4.99998 16.3657 5 15.8385V8.16146C4.99998 7.63431 4.99997 7.17954 5.03057 6.80497C5.06287 6.40963 5.13419 6.01641 5.32698 5.63803C5.6146 5.07354 6.07354 4.6146 6.63803 4.32698C7.01641 4.13419 7.40963 4.06287 7.80497 4.03057C8.17955 3.99997 8.63431 3.99998 9.16146 4L13.0941 4C13.1238 4 13.1532 3.99997 13.1824 3.99994Z" fill="#C7CED9"/>
</svg>
